<svg width="148" height="32" viewBox="0 0 148 32" fill="none" xmlns="http://www.w3.org/2000/svg">
<g clip-path="url(#clip0_4001_5833)">
<path fill-rule="evenodd" clip-rule="evenodd" d="M16 32C24.8366 32 32 24.8366 32 16C32 7.16344 24.8366 0 16 0C7.16344 0 0 7.16344 0 16C0 24.8366 7.16344 32 16 32ZM19.2492 12.6769L18.4615 14.6708C19.323 15.2123 19.8153 16.1723 19.8153 17.1815C19.7661 18.7569 18.4615 19.9877 16.8861 19.9385C15.3107 19.8892 14.0799 18.5846 14.1292 17.0092C14.1784 15.5323 15.3599 14.3262 16.8369 14.2523L17.5753 12.2092C14.6215 11.8154 11.8892 13.9323 11.8892 17.0339V22.1785H14.1292V21.3662C14.9661 21.9077 15.9753 22.1785 16.9599 22.1785C19.7169 22.2277 22.0061 20.0123 22.0307 17.2308C22.0799 15.3108 20.9969 13.5385 19.2492 12.6769ZM11.8892 12.4308C12.5292 11.7908 13.2922 11.2739 14.1292 10.9046V7.68001H11.8892V12.4308ZM53.3415 22.2031V7.70462H51.0276V22.2031H53.3415ZM95.1138 22.1785V16.1969C95.0891 13.5631 93.1938 12.0369 90.9291 12.0369C89.5753 12.0123 88.2707 12.6523 87.4584 13.7354C86.7199 12.6523 85.4645 12.0123 84.1353 12.0369C83.003 12.0369 81.9199 12.5292 81.1815 13.3908V12.2339H78.8676V22.2031H81.1815V16.6154V16.5415C81.1569 15.2369 82.1907 14.1785 83.4953 14.1785C84.8245 14.1785 85.8338 15.0892 85.8338 16.5908V22.1785H88.1476V16.5169V16.4431C88.1476 15.1877 89.1815 14.1785 90.4615 14.1785C91.7661 14.1785 92.7753 15.1139 92.7999 16.5908V22.1785H95.1138ZM102.745 14.4985V12.0369C101.415 12.0123 100.185 12.6031 99.3722 13.6369V12.2339H97.0584V22.2031H99.3722V17.0339C99.3722 15.5077 100.505 14.3508 102.745 14.4985ZM105.403 18.0431H113.255C113.821 14.4 111.163 12.0369 108.283 12.0616H108.086C105.28 12.1108 103.065 14.4246 103.138 17.2308C103.138 20.1108 105.329 22.4 108.505 22.4C110.474 22.4246 112.246 21.3169 113.108 19.5446L111.163 18.7323C110.621 19.7416 109.538 20.3816 108.381 20.3323C106.954 20.3816 105.698 19.4215 105.403 18.0431ZM111.163 16.2708H105.428C105.772 14.9662 106.978 14.0554 108.357 14.08C109.686 14.08 110.843 14.9908 111.163 16.2708ZM124.997 22.1785V12.2092L122.683 12.2339V13.5631C121.846 12.5785 120.615 12.0123 119.335 12.0369C116.554 12.0369 114.486 14.1539 114.486 17.2062C114.486 20.2585 116.554 22.3754 119.335 22.3754C120.64 22.4 121.871 21.8339 122.683 20.8492V22.1785H124.997ZM119.754 14.1292C121.452 14.1292 122.683 15.5077 122.683 17.2062C122.683 18.9046 121.428 20.2831 119.754 20.2831C118.055 20.2831 116.849 18.9046 116.849 17.2062C116.849 15.5077 118.055 14.1292 119.754 14.1292ZM131.84 12.0369C128.96 12.0123 126.621 14.3262 126.621 17.2062V17.4769C126.695 20.2585 129.009 22.4739 131.791 22.4C133.932 22.4492 135.852 21.1692 136.64 19.1754L134.548 18.3631C134.105 19.5446 132.948 20.3077 131.692 20.2585C130.092 20.1846 128.861 18.8308 128.935 17.2308C128.935 15.5569 130.068 14.2031 131.815 14.2031C132.972 14.2277 134.006 14.9169 134.474 15.9754L136.615 15.2369C135.803 13.2923 133.932 12.0369 131.84 12.0369ZM147.692 22.2031V16.4185C147.692 13.6615 145.748 12.0369 143.434 12.0369C142.203 12.0123 141.021 12.5785 140.234 13.5139V7.70462H137.92V22.2031H140.234V16.8369V16.6646C140.258 15.2615 141.415 14.1539 142.818 14.1785C144.246 14.1785 145.378 15.1385 145.378 16.7877V22.2031H147.692ZM41.083 7.68001V12.9231C41.9445 12.3816 42.9292 12.1108 43.8892 12.1354C44.5538 12.1108 45.2184 12.2339 45.8338 12.48C46.9907 12.9969 47.9015 13.9077 48.4184 15.04C49.6245 17.6246 48.4676 20.7262 45.8584 21.9077C45.243 22.1539 44.5784 22.2769 43.9138 22.2769C42.9292 22.2769 41.9199 22.0062 41.083 21.4646V22.1785H38.7692V7.68001H41.083ZM41.083 18.7077C41.5753 19.6431 42.5599 20.2585 43.643 20.2339C45.243 20.1846 46.523 18.9046 46.5722 17.3046C46.6215 15.6308 45.3169 14.2277 43.643 14.1785C42.5845 14.1539 41.5753 14.7446 41.083 15.7046C40.5907 16.64 40.5907 17.7723 41.083 18.7077ZM60.2338 11.8646C57.3538 11.9139 55.0153 14.3015 55.0645 17.2062V17.4277C55.163 20.2585 57.5261 22.4492 60.3322 22.3754H60.4061C63.2861 22.3262 65.6245 19.9385 65.5753 17.0339C65.5261 14.1539 63.1384 11.8154 60.2338 11.8646ZM63.4338 17.3046C63.3845 18.9785 61.9815 20.2831 60.3076 20.2339H60.2338C58.6092 20.1846 57.3292 18.8308 57.3784 17.2062V17.1077C57.4276 15.4339 58.8307 14.1292 60.5045 14.1785C62.1784 14.2277 63.483 15.6308 63.4338 17.3046ZM71.9015 11.8646C68.9968 11.9139 66.683 14.3015 66.7322 17.2062C66.7322 17.28 66.7322 17.3539 66.7569 17.4277C66.8307 20.2339 69.1938 22.4492 71.9999 22.3754H72.0738C74.9784 22.3262 77.2922 19.9385 77.243 17.0339C77.1938 14.1292 74.8061 11.8154 71.9015 11.8646ZM75.1015 17.3046C75.0522 18.9785 73.6492 20.2831 71.9753 20.2339H71.9015C70.2768 20.1846 68.9968 18.8308 69.0461 17.2062V17.1077C69.0953 15.4339 70.4984 14.1292 72.1722 14.1785C73.8461 14.2277 75.1507 15.6308 75.1015 17.3046Z" fill="white"/>
</g>
<defs>
<clipPath id="clip0_4001_5833">
<rect width="148" height="32" fill="white"/>
</clipPath>
</defs>
</svg>
