<svg width="144" height="32" viewBox="0 0 144 32" fill="none" xmlns="http://www.w3.org/2000/svg">
<path d="M115.824 7.77734H143.274L129.55 29.3249L115.824 7.77734ZM119.265 9.64358L129.55 25.7908L139.834 9.64358H119.265Z" fill="white"/>
<path d="M115.824 3.06641H143.274L129.55 24.6139L115.824 3.06641ZM119.265 4.93265L129.55 21.0811L139.834 4.93265H119.265Z" fill="white"/>
<path d="M11.3604 26.2129C9.45829 26.2129 7.73669 25.8033 6.19685 24.9867C4.70949 24.1841 3.47045 23.0039 2.60901 21.5729C1.73861 20.1163 1.30469 18.4804 1.30469 16.6666C1.30469 14.8529 1.73989 13.2273 2.60901 11.7873C3.46533 10.3422 4.71717 9.15945 6.22373 8.37225C7.76485 7.53769 9.48517 7.12041 11.3872 7.12041C12.8733 7.12041 14.2314 7.36873 15.4653 7.86665C16.6762 8.33257 17.7565 9.07241 18.6167 10.0273L16.8503 11.7067C15.4192 10.2308 13.6349 9.49225 11.4973 9.49225C10.0842 9.49225 8.80549 9.80329 7.66373 10.4267C6.54117 11.0308 5.61061 11.9255 4.97445 13.0123C4.33957 14.0977 4.02213 15.3162 4.02213 16.6666C4.02213 18.017 4.33957 19.2433 4.97445 20.3467C5.61701 21.4219 6.54629 22.3076 7.66373 22.9067C8.80549 23.5287 10.0829 23.8398 11.4973 23.8398C13.617 23.8398 15.4013 23.0923 16.8503 21.5998L18.6167 23.2804C17.7463 24.2404 16.657 24.9892 15.4372 25.4667C14.2058 25.9646 12.8464 26.2129 11.3604 26.2129ZM33.5018 19.0129C33.5018 19.2087 33.4826 19.4673 33.4468 19.7873H21.7616C21.9242 21.0302 22.4772 22.035 23.4192 22.8004C24.3792 23.5466 25.5658 23.9204 26.9789 23.9204C28.7005 23.9204 30.0868 23.3508 31.1376 22.2129L32.5776 23.8666C31.9159 24.6206 31.0762 25.2055 30.1316 25.5729C29.1716 25.9646 28.0938 26.1604 26.8983 26.1604C25.3764 26.1604 24.026 25.8583 22.8484 25.2529C21.7015 24.6602 20.7504 23.7642 20.104 22.6673C19.4692 21.5639 19.1517 20.3198 19.1517 18.9323C19.1517 17.5639 19.4602 16.3287 20.0759 15.2267C20.7108 14.1233 21.5709 13.2708 22.6576 12.6667C23.7636 12.0433 25.0039 11.7323 26.3812 11.7323C27.7584 11.7323 28.9821 12.0433 30.0496 12.6667C31.1287 13.2631 32.0068 14.1527 32.5776 15.2267C33.1933 16.3287 33.5018 17.5908 33.5018 19.0129ZM26.3812 13.8929C25.1319 13.8929 24.0797 14.2667 23.2272 15.0129C22.3952 15.7591 21.9063 16.7383 21.7616 17.9467H31.0007C30.856 16.7563 30.3581 15.7873 29.5056 15.0398C28.6736 14.2756 27.6317 13.8929 26.3812 13.8929ZM38.6052 14.2398C39.0583 13.4219 39.729 12.7998 40.6161 12.3723C41.5044 11.9473 42.5821 11.7323 43.8506 11.7323V14.2129C43.6522 14.1924 43.4525 14.1834 43.2528 14.1873C41.8397 14.1873 40.7261 14.6046 39.9095 15.4391C39.1133 16.2583 38.7152 17.4308 38.7152 18.9604V26.0004H36.1053V11.8667H38.6052V14.2398ZM58.9328 19.0129C58.9328 19.2087 58.9136 19.4673 58.8778 19.7873H47.1927C47.3552 21.0302 47.9082 22.035 48.8503 22.8004C49.8103 23.5466 50.9968 23.9204 52.41 23.9204C54.1316 23.9204 55.5178 23.3508 56.5687 22.2129L58.0087 23.8666C57.3469 24.6206 56.5072 25.2055 55.5626 25.5729C54.6026 25.9646 53.5248 26.1604 52.3293 26.1604C50.8061 26.1604 49.457 25.8583 48.2794 25.2529C47.1325 24.6602 46.1815 23.7642 45.5351 22.6673C44.9002 21.5639 44.5828 20.3198 44.5828 18.9323C44.5828 17.5639 44.8912 16.3287 45.5069 15.2267C46.1418 14.1233 47.002 13.2708 48.0887 12.6667C49.1946 12.0433 50.4349 11.7323 51.8122 11.7323C53.1895 11.7323 54.4132 12.0433 55.4807 12.6667C56.5597 13.2631 57.4378 14.1527 58.0087 15.2267C58.6244 16.3287 58.9328 17.5908 58.9328 19.0129ZM51.8122 13.8929C50.5629 13.8929 49.5108 14.2667 48.6596 15.0129C47.8263 15.7591 47.3373 16.7383 47.1927 17.9467H56.4317C56.2871 16.7563 55.7892 15.7873 54.9367 15.0398C54.1047 14.2756 53.0628 13.8929 51.8122 13.8929ZM69.1741 11.7323C70.568 11.7323 71.8186 12.0356 72.9232 12.6398C74.0125 13.2286 74.9085 14.1067 75.5063 15.1729C76.1399 16.2583 76.456 17.5102 76.456 18.9323C76.456 20.3543 76.1386 21.6177 75.5063 22.7198C74.9085 23.786 74.0125 24.6641 72.9232 25.2529C71.8173 25.8583 70.568 26.1604 69.1741 26.1604C68.104 26.1604 67.1261 25.9556 66.2378 25.5473C65.3597 25.1454 64.6007 24.5297 64.0362 23.7604V26.0004H61.5364V6.21289H64.145V14.0004C64.7082 13.2657 65.4583 12.6871 66.3197 12.3198C67.1901 11.9294 68.1399 11.7323 69.1741 11.7323ZM68.9552 23.9204C69.8807 23.9204 70.705 23.7143 71.4282 23.3073C72.1642 22.8887 72.7658 22.2794 73.169 21.5473C73.6029 20.7818 73.8205 19.9102 73.8205 18.9323C73.8205 17.9556 73.6029 17.0929 73.1677 16.3467C72.776 15.6068 72.1719 14.9963 71.4282 14.5866C70.705 14.1771 69.8807 13.9723 68.9552 13.9723C68.09 13.9633 67.2375 14.1745 66.4823 14.5866C65.7399 14.995 65.1344 15.6068 64.7428 16.3467C64.3255 17.0929 64.1181 17.9543 64.1181 18.9323C64.1181 19.9102 64.3255 20.7831 64.7428 21.5473C65.1447 22.2794 65.7476 22.8874 66.4823 23.3073C67.2247 23.7156 68.049 23.9204 68.9552 23.9204ZM81.5428 14.2398C81.9946 13.4219 82.6653 12.7998 83.5536 12.3723C84.442 11.9473 85.5197 11.7323 86.7869 11.7323V14.2129C86.5885 14.1924 86.3888 14.1834 86.1892 14.1873C84.776 14.1873 83.6624 14.6046 82.8471 15.4391C82.0496 16.2583 81.6516 17.4308 81.6516 18.9604V26.0004H79.0416V11.8667H81.5428V14.2398ZM94.2032 11.7323C96.1962 11.7323 97.7181 12.2123 98.7677 13.1723C99.8378 14.1323 100.372 15.5646 100.372 17.4667V26.0004H97.8986V24.1329C97.4647 24.7908 96.8388 25.2977 96.0234 25.6523C95.2272 25.9902 94.2762 26.1604 93.1703 26.1604C91.5588 26.1604 90.2621 25.7777 89.2842 25.0123C88.3229 24.2494 87.8429 23.2433 87.8429 22.0004C87.8429 20.7562 88.305 19.7604 89.2292 19.0129C90.1533 18.2487 91.6202 17.8673 93.6324 17.8673H97.7629V17.3604C97.7629 16.2583 97.4365 15.4122 96.785 14.8273C96.1322 14.2398 95.1722 13.9467 93.9037 13.9467C93.0525 13.9467 92.2192 14.0887 91.4039 14.3729C90.5885 14.6404 89.8999 15.0052 89.338 15.4673L88.2513 13.5473C88.9936 12.9598 89.882 12.5143 90.9137 12.2123C91.9786 11.8884 93.0884 11.7259 94.2032 11.7323ZM93.6055 24.1866C94.6013 24.1866 95.4615 23.9729 96.1873 23.5466C96.9066 23.1089 97.4596 22.4535 97.7642 21.6804V19.7066H93.7399C91.5306 19.7066 90.4247 20.4363 90.4247 21.8929C90.4247 22.6046 90.7063 23.1639 91.2669 23.5723C91.8301 23.9831 92.6084 24.1866 93.6055 24.1866ZM104.181 6.21289H106.791V26.0004H104.181V6.21289Z" fill="white"/>
</svg>
