<svg width="124" height="32" viewBox="0 0 124 32" fill="none" xmlns="http://www.w3.org/2000/svg">
<g clip-path="url(#clip0_4001_5825)">
<path d="M8.6252 31.4136C6.93796 31.3346 5.48901 30.9924 4.28462 30.3887C3.1457 29.8178 2.31252 29.0798 1.59634 28.0074C0.622383 26.549 0.180374 24.8837 0.0462652 22.1675C0.00595882 21.351 0.00517144 10.6811 0.0453704 9.88552C0.158712 7.64196 0.45257 6.20831 1.05776 4.94645C2.35581 2.23987 4.75787 0.824508 8.43122 0.601808C10.9363 0.449936 13.2559 0.977228 14.8784 2.0674C15.4404 2.44502 16.0782 3.02968 16.5156 3.56841C17.2668 4.49333 17.7421 5.5529 18.0107 6.90119C18.1974 7.83844 18.2503 8.49068 18.2704 10.1019L18.2869 11.4373H15.6764H13.0657L13.048 10.5346C13.0225 9.24177 12.9203 8.4841 12.67 7.73344C12.4634 7.11392 12.2173 6.68895 11.8383 6.29732C11.1847 5.62184 10.403 5.33764 9.20714 5.34077C7.95075 5.34408 7.1576 5.61971 6.55033 6.26404C5.74662 7.11679 5.37763 8.49318 5.26633 11.0534C5.2217 12.0801 5.24449 21.3358 5.29311 21.9274C5.42711 23.5579 5.67912 24.5118 6.16512 25.2278C6.61242 25.8869 7.38642 26.3743 8.31936 26.5843C8.60836 26.6494 9.56694 26.6768 9.90006 26.6295C11.3077 26.4298 12.2035 25.6341 12.6794 24.1611C12.9168 23.4259 13.0199 22.6517 13.0477 21.3976L13.066 20.5695H15.6727H18.2796V21.5021C18.2791 22.8368 18.2138 23.7713 18.0541 24.7156C17.809 26.1648 17.3133 27.3681 16.5842 28.2839C15.1282 30.1131 13.0963 31.1323 10.4309 31.3707C10.0428 31.4053 8.9854 31.4305 8.6252 31.4136ZM31.336 31.402C28.5857 31.232 26.5002 30.2901 25.0629 28.5691C23.8871 27.1608 23.3088 25.6139 23.071 23.2404C22.9853 22.384 22.9619 21.8895 22.9443 20.5546L22.9266 19.2116L29.3763 15.7088C32.9236 13.7822 35.8487 12.1893 35.8765 12.1691C35.9233 12.1349 35.9243 12.0699 35.891 11.27C35.8253 9.69624 35.7452 8.95916 35.5555 8.18688C35.1288 6.44861 34.2679 5.59405 32.7237 5.37614C32.3343 5.32119 31.4831 5.32998 31.127 5.39262C30.1528 5.56405 29.4112 6.02574 28.9195 6.76688C28.5206 7.36786 28.2997 8.00264 28.2026 8.82655C28.1607 9.18181 28.1002 10.5495 28.0987 11.1762L28.0979 11.4373H25.4829H22.8678L22.8876 10.7137C22.9895 6.98091 23.2109 5.82751 24.1155 4.31438C24.424 3.7985 24.7584 3.37229 25.201 2.93102C25.9329 2.20131 26.7077 1.70016 27.7352 1.29207C30.2078 0.310097 33.9448 0.347882 36.3795 1.37947C37.6655 1.92439 38.7421 2.77982 39.4349 3.80735C40.4635 5.33273 40.9628 7.14866 41.1104 9.90044C41.1573 10.7761 41.1339 22.719 41.0842 23.2703C40.8511 25.8525 40.4485 27.1034 39.4492 28.3506C38.2348 29.8664 36.4013 30.8796 34.201 31.2507C33.3654 31.3917 32.18 31.4543 31.336 31.402ZM32.9862 26.7741C34.6722 26.492 35.5515 25.3739 35.8466 23.136C35.888 22.8224 35.8978 22.3601 35.9085 20.2337C35.9154 18.8427 35.9101 17.7046 35.8966 17.7047C35.8832 17.7051 34.1464 18.649 32.0373 19.8027L28.2024 21.9003L28.1926 22.0779C28.1806 22.2966 28.2354 23.0195 28.2939 23.4134C28.4383 24.3867 28.7278 25.1524 29.1562 25.6942C29.8055 26.5153 30.8413 26.8993 32.2611 26.8452C32.4746 26.8371 32.8008 26.8051 32.9862 26.7741ZM90.5076 31.4026C87.2775 31.2101 84.9659 30.0487 83.6466 27.9557C82.7805 26.5815 82.3576 25.0529 82.1401 22.5092C82.0916 21.941 82.068 10.7706 82.1132 9.6617C82.2322 6.73083 82.6429 5.16912 83.6472 3.82732C84.051 3.28789 84.7752 2.59534 85.3674 2.18244C87.0056 1.04012 89.3451 0.462105 91.7762 0.598933C92.7261 0.652392 93.3523 0.745127 94.1279 0.947179C96.1208 1.46646 97.6232 2.5165 98.7085 4.14866C99.6145 5.51136 100.028 6.95386 100.231 9.46772C100.249 9.6893 100.271 10.529 100.28 11.3336L100.297 12.7967L93.8445 16.3008C90.2959 18.2282 87.3732 19.8192 87.3498 19.8366C87.3134 19.8635 87.3115 19.9717 87.3366 20.5695C87.4135 22.3949 87.4908 23.0895 87.7106 23.9317C88.1383 25.5706 88.979 26.3927 90.4502 26.6112C90.8533 26.671 91.7058 26.6723 92.0682 26.6135C93.017 26.4596 93.7425 26.0306 94.2647 25.3146C94.5187 24.9662 94.7784 24.3883 94.9048 23.8901C95.0458 23.3346 95.1249 22.3508 95.1257 21.1439V20.5695H97.7419H100.358L100.337 21.4854C100.272 24.4251 100.056 25.8476 99.501 26.9931C98.7516 28.5411 97.6118 29.702 96.1255 30.4309C95.126 30.9212 93.9608 31.2331 92.6653 31.3572C92.0827 31.413 91.0482 31.4348 90.5076 31.4026ZM91.2356 12.1778L95.0596 10.0864L95.0462 9.76962C94.9363 7.19189 94.1927 5.83151 92.6241 5.33799C92.1965 5.20346 91.8488 5.16006 91.2018 5.16041C90.7889 5.16064 90.5173 5.17567 90.3211 5.20918C88.5933 5.50402 87.7061 6.57566 87.4131 8.72163C87.3296 9.33386 87.308 10.042 87.3076 12.1941C87.3076 14.1958 87.31 14.3076 87.3595 14.2888C87.3882 14.278 89.1325 13.328 91.2356 12.1778ZM113.48 31.4123C110.554 31.2819 108.203 30.2561 106.791 28.4929C106.473 28.0973 106.25 27.7419 106.003 27.2395C105.474 26.1617 105.21 24.9903 105.058 23.0464C105.028 22.6646 105.019 21.0832 105.019 16.0034C105.019 10.9236 105.028 9.34222 105.058 8.96038C105.27 6.24589 105.762 4.74409 106.876 3.40313C108.048 1.99221 109.932 1.03368 112.167 0.711291C112.841 0.614008 113.191 0.591918 114.047 0.592558C115.18 0.593409 115.943 0.676768 116.87 0.901381C118.503 1.29688 119.847 2.03158 120.867 3.08495C122.223 4.4876 122.774 6.03946 122.976 9.03498C123.032 9.84908 123.032 22.1981 122.976 22.9569C122.756 25.9902 122.238 27.479 120.921 28.8643C119.247 30.6242 116.548 31.549 113.48 31.4123ZM114.753 26.6129C116.469 26.3346 117.411 25.099 117.702 22.7434C117.802 21.9389 117.812 21.1987 117.799 15.526C117.786 9.84721 117.785 9.80726 117.672 9.00515C117.376 6.91921 116.52 5.76207 115.028 5.43651C114.278 5.27283 113.329 5.30588 112.676 5.51845C112.395 5.60955 112.013 5.8103 111.784 5.98717C111.023 6.57225 110.524 7.66767 110.333 9.16928C110.23 9.97716 110.222 10.5063 110.235 16.3764C110.247 22.5585 110.243 22.3598 110.391 23.2319C110.731 25.2295 111.662 26.354 113.188 26.6098C113.53 26.6673 114.408 26.6689 114.753 26.6129ZM45.9226 20.368C45.9331 9.03907 45.9249 9.62138 46.0923 8.30382C46.3253 6.4693 46.7888 5.08658 47.5679 3.90192C48.7907 2.04243 50.8367 0.95945 53.7185 0.646266C54.37 0.575462 55.7452 0.574532 56.3895 0.644461C58.5175 0.875411 60.1025 1.48258 61.3428 2.54191L61.6222 2.7805L61.7291 2.69064C62.6261 1.93636 63.3508 1.51805 64.3791 1.16095C66.6184 0.383228 69.7745 0.393381 72.0496 1.18563C73.7901 1.79168 75.021 2.76639 75.8807 4.21915C76.6362 5.4958 77.0565 6.98793 77.2332 9.02006C77.3318 10.1545 77.3392 10.9791 77.3393 20.8902V30.8058H74.7291H72.1188L72.1077 21.0395C72.0967 11.3245 72.0944 11.0893 71.9964 9.85567C71.8353 7.82887 71.316 6.55108 70.3949 5.91421C69.8151 5.51347 69.1234 5.33717 68.1475 5.34147C65.9002 5.35135 64.8268 6.44081 64.4499 9.09467C64.3848 9.55312 64.3419 10.092 64.2977 11.0047C64.2803 11.3626 64.2686 15.4466 64.2684 21.2036L64.2677 30.8058H61.6274H58.9871L58.9768 20.8753C58.9693 13.6622 58.9569 10.8183 58.9315 10.4824C58.8643 9.59214 58.8306 9.27045 58.7607 8.85299C58.4389 6.92856 57.7466 5.92403 56.4638 5.51993C55.9779 5.36691 55.2413 5.29756 54.6433 5.34858C53.7073 5.42844 53.0785 5.67036 52.5696 6.14648C51.8328 6.83566 51.4011 8.03589 51.2567 9.79599C51.1582 10.9971 51.1564 11.1794 51.1456 20.9798L51.1347 30.8058H48.5236H45.9125L45.9226 20.368Z" fill="white"/>
</g>
<defs>
<clipPath id="clip0_4001_5825">
<rect width="123.733" height="32" fill="white"/>
</clipPath>
</defs>
</svg>
