<svg width="80" height="32" viewBox="0 0 80 32" fill="none" xmlns="http://www.w3.org/2000/svg">
<g clip-path="url(#clip0_4001_5836)">
<path d="M0 24.5029H4.69257V16.9474C4.69257 14.1509 6.06057 12.8766 7.83314 12.8766C9.512 12.8766 10.3497 14.1817 10.3497 16.3257V24.5029H15.0446V15.5177C15.0446 11.4457 12.8366 8.61829 9.01486 8.61829C6.99429 8.61829 5.44 9.488 4.69257 10.544V1.18743H0V24.5029ZM21.0434 6.84457C22.6914 6.84457 23.9954 5.53943 23.9954 3.92229C23.9954 2.30629 22.6903 1 21.0434 1C19.4331 1.00914 18.1303 2.312 18.1223 3.92229C18.1303 5.53143 19.4331 6.83543 21.0434 6.84457ZM18.7131 24.5029H23.4046V8.95886H18.712V24.5029H18.7131ZM27.2594 31H31.9543V22.9474C32.5749 23.7874 34.0983 24.8446 36.1806 24.8446C40.2514 24.8446 43.3931 21.1451 43.3931 16.7314C43.3931 12.3166 40.2526 8.61829 36.1806 8.61829C34.0983 8.61829 32.5749 9.67429 31.9543 10.5131V8.95886H27.2594V31ZM35.1246 20.5851C33.0103 20.5851 31.5806 18.9691 31.5806 16.7314C31.5806 14.4926 33.0103 12.8766 35.1246 12.8766C37.2366 12.8766 38.6674 14.4926 38.6674 16.7314C38.6674 18.9691 37.2366 20.5851 35.1246 20.5851ZM45.5371 31H50.2309V22.9474C50.8514 23.7874 52.3749 24.8446 54.4571 24.8446C58.5291 24.8446 61.6686 21.1451 61.6686 16.7314C61.6686 12.3166 58.5291 8.61829 54.4583 8.61829C52.3749 8.61829 50.8526 9.67429 50.2309 10.5131V8.95886H45.5371V31ZM53.4011 20.5851C51.2869 20.5851 49.8571 18.9691 49.8571 16.7314C49.8571 14.4926 51.2869 12.8766 53.4011 12.8766C55.5143 12.8766 56.944 14.4926 56.944 16.7314C56.944 18.9691 55.5143 20.5851 53.4011 20.5851ZM71.0251 24.8446C75.5006 24.8446 79.2 21.3006 79.2 16.7314C79.2 12.1611 75.5006 8.61829 71.0251 8.61829C66.5486 8.61829 62.8503 12.1611 62.8503 16.7314C62.8503 21.3006 66.5486 24.8446 71.0251 24.8446ZM71.0251 20.4606C69.0674 20.4606 67.5749 18.9383 67.5749 16.7314C67.5749 14.5234 69.0674 13 71.0251 13C72.984 13 74.4754 14.5234 74.4754 16.7314C74.4754 18.9383 72.984 20.4606 71.0251 20.4606Z" fill="white"/>
</g>
<defs>
<clipPath id="clip0_4001_5836">
<rect width="80" height="32" fill="white"/>
</clipPath>
</defs>
</svg>
