<svg width="75" height="32" viewBox="0 0 75 32" fill="none" xmlns="http://www.w3.org/2000/svg">
<path d="M28.5097 16.5726V20.2686C29.0343 21.0731 29.9509 21.6103 31.1234 21.6103C32.8949 21.6103 34.128 20.2926 34.128 18.4514C34.128 16.6457 32.8331 15.3291 31.0869 15.3291C29.9509 15.3166 29.0583 15.8046 28.5097 16.5726ZM31.5634 23.5131C30.3417 23.5131 29.2914 23.1463 28.4857 22.4149V23.3051H26.2011V8.50057H28.5097V14.6594C29.3269 13.7806 30.4389 13.3657 31.7326 13.3657C34.3234 13.3657 36.4354 15.4389 36.4354 18.4263C36.448 21.3657 34.2491 23.512 31.5623 23.512L31.5634 23.5131ZM38 8.50057H40.3086V23.3051H38V8.50057ZM44.2171 17.2686H49.0411C48.76 16.0983 47.9291 15.2434 46.6469 15.2434C45.4754 15.232 44.536 15.9634 44.2171 17.2686ZM47.2949 23.5006C44.1063 23.5006 41.8354 21.4514 41.8354 18.4389C41.8354 15.4389 44.1063 13.3657 46.6469 13.3657C49.6274 13.3657 51.3371 15.4994 51.3371 18.4754V18.9634H44.144C44.3634 20.5611 45.4994 21.5977 47.4651 21.5977C48.736 21.5977 50.2011 21.0846 51.0686 20.4023V22.3897C50.2377 23.024 48.7977 23.5006 47.2949 23.5006ZM55.2949 16.488V23.3051H52.9863V13.5726H55.2571V14.6457C55.9417 13.8537 57.016 13.3543 58.3234 13.3543C60.7177 13.3543 62.048 14.9509 62.048 17.2811V23.3051H59.7394V17.5486C59.7394 16.2926 58.9829 15.3783 57.688 15.3783C56.6011 15.3783 55.808 15.8286 55.2949 16.488ZM68.9006 21.5851C70.0366 21.5851 70.928 21.0983 71.4766 20.3291V16.6343C70.952 15.8286 70.0366 15.2926 68.864 15.2926C67.0926 15.2926 65.8594 16.6103 65.8594 18.4389C65.8594 20.2686 67.1543 21.5851 68.9006 21.5851ZM71.5143 22.1954C70.7211 23.0606 69.6091 23.512 68.3269 23.512C65.6891 23.512 63.5383 21.4629 63.5383 18.488C63.5383 15.5486 65.7246 13.3783 68.424 13.3783C69.6206 13.3783 70.672 13.7189 71.4663 14.4514V8.512H73.7863V23.3166H71.5143V22.1954ZM12.096 12.7189L13.1086 11.9634C15.2571 10.3897 15.1726 8.47543 14.7943 7.34057C14.3783 6.04914 13.1817 4.65943 11.1063 4.65943H0.503998V1H11.1051C14.44 1 17.248 3.04914 18.2754 6.20686C19.3017 9.37829 18.2251 12.6834 15.5383 14.6343L15.136 14.9269L12.0949 12.72L12.096 12.7189ZM13.656 16L15.5257 17.3657C18.2251 19.3166 19.3006 22.6217 18.2731 25.7931C17.2491 28.9634 14.4274 31 11.1063 31H0.503998V27.3406H11.0926C13.1691 27.3406 14.3657 25.9509 14.7817 24.6583C15.2091 23.3657 15.0514 21.5486 13.376 20.3291L10.544 18.2686L7.42857 16.0114L4.168 13.6446V18.3771L5.92686 17.0971L9.04114 19.3531L3.41143 23.4377C2.85486 23.8423 2.11771 23.8994 1.50628 23.584C0.891426 23.2686 0.505141 22.6389 0.503998 21.9497V10.0366C0.503998 9.35429 0.895998 8.72 1.50628 8.41486C2.11771 8.10057 2.85486 8.15657 3.41143 8.56114L10.544 13.7314L13.656 16Z" fill="white"/>
</svg>
