<svg width="117" height="32" viewBox="0 0 117 32" fill="none" xmlns="http://www.w3.org/2000/svg">
<path d="M33.2565 24.672C31.9514 24.672 30.9148 24.2662 30.1479 23.4537V24.4594H27.8062V9.60338L30.1479 8.86167V14.7588C30.9148 13.9611 31.9514 13.5622 33.2565 13.5622C34.8039 13.5622 36.0771 14.104 37.0771 15.1862C38.0782 16.2685 38.5788 17.5794 38.5788 19.1165C38.5788 20.6548 38.0782 21.9668 37.0771 23.048C36.0771 24.1314 34.8039 24.672 33.2565 24.672ZM33.0017 22.536C33.9239 22.536 34.6828 22.2045 35.2794 21.5417C35.8748 20.88 36.1731 20.072 36.1731 19.1165C36.1731 18.1634 35.8748 17.3554 35.2794 16.6925C34.6828 16.0297 33.9239 15.6994 33.0017 15.6994C31.7811 15.6994 30.8291 16.1897 30.1491 17.1725V21.04C30.8165 22.0365 31.7662 22.536 33.0017 22.536ZM41.9411 11.8742C41.5285 11.8788 41.1319 11.7131 40.8451 11.4137C40.5445 11.12 40.3788 10.7142 40.3868 10.2925C40.3822 9.87881 40.5479 9.47996 40.8451 9.1931C41.1319 8.89367 41.5285 8.72796 41.9411 8.73253C42.3811 8.73253 42.7537 8.88681 43.0588 9.1931C43.3639 9.49938 43.5171 9.86624 43.5171 10.2925C43.5171 10.7348 43.3639 11.1085 43.0588 11.4148C42.7537 11.7211 42.3822 11.8742 41.9411 11.8742ZM40.7708 24.4605H43.1125V13.776H40.7708V24.4605ZM51.0942 24.5645C50.0017 24.5645 49.1125 24.2628 48.4234 23.6571C47.7354 23.0514 47.3914 22.1714 47.3914 21.0194V15.8685H44.7514V13.776H47.3914V11.4217L49.7331 10.6777V13.776H52.9902V15.8697H49.7319V20.6342C49.7319 21.8445 50.2851 22.4502 51.3925 22.4502C51.9742 22.4502 52.4782 22.3222 52.9045 22.0662L53.6074 24.0308C52.8691 24.3874 52.0325 24.5645 51.0942 24.5645ZM55.1605 29.3451V13.7748H57.5022V14.7588C58.2691 13.9611 59.3045 13.5622 60.6108 13.5622C62.1571 13.5622 63.4302 14.104 64.4314 15.1862C65.4325 16.2685 65.9319 17.5794 65.9319 19.1165C65.9319 20.6548 65.4325 21.9668 64.4314 23.048C63.4302 24.1314 62.1571 24.672 60.6108 24.672C59.3045 24.672 58.2691 24.2662 57.5022 23.4537V28.6045L55.1605 29.3451ZM60.3548 22.5348C61.2771 22.5348 62.0359 22.2045 62.6325 21.5417C63.2291 20.88 63.5274 20.072 63.5274 19.1165C63.5274 18.1634 63.2279 17.3554 62.6325 16.6925C62.0359 16.0297 61.2771 15.6994 60.3548 15.6994C59.1342 15.6994 58.1822 16.1897 57.5022 17.1725V21.04C58.1697 22.0365 59.1205 22.5348 60.3548 22.5348ZM72.6805 24.672C71.1331 24.672 69.8622 24.1325 68.8691 23.0491C67.8759 21.9657 67.3799 20.656 67.3799 19.1165C67.3799 17.5794 67.8759 16.2685 68.8691 15.1862C69.8622 14.104 71.1331 13.5622 72.6805 13.5622C73.9857 13.5622 75.0222 13.9611 75.7891 14.7588V13.776H78.1308V24.4594H75.7891V23.4537C75.0222 24.2662 73.9857 24.672 72.6805 24.672ZM72.9559 22.536C74.1765 22.536 75.1205 22.0365 75.7879 21.04V17.1725C75.1068 16.1897 74.1628 15.6994 72.9559 15.6994C72.0348 15.6994 71.2759 16.0297 70.6782 16.6925C70.0828 17.3554 69.7845 18.1634 69.7845 19.1165C69.7845 20.072 70.0828 20.88 70.6782 21.5417C71.2759 22.2045 72.0337 22.536 72.9559 22.536ZM80.6634 24.4594V13.776H83.0039V14.9085C83.7274 14.0114 84.7708 13.5622 86.1331 13.5622C87.3959 13.5622 88.4074 13.9725 89.1662 14.7908C89.9262 15.6102 90.3056 16.7028 90.3056 18.0708V24.4594H87.9639V18.4548C87.9639 17.5862 87.7617 16.9085 87.3571 16.4251C86.9525 15.9405 86.3754 15.6994 85.6222 15.6994C84.3731 15.6994 83.5011 16.2617 83.0039 17.3874V24.4594H80.6634ZM97.6497 24.672C96.1034 24.672 94.8325 24.1325 93.8394 23.0491C92.8462 21.9657 92.3491 20.656 92.3491 19.1165C92.3491 17.5794 92.8462 16.2685 93.8394 15.1862C94.8325 14.104 96.1034 13.5622 97.6497 13.5622C98.9548 13.5622 99.9914 13.9611 100.758 14.7588V9.60338L103.1 8.86167V24.4594H100.758V23.4537C99.9914 24.2662 98.9548 24.672 97.6497 24.672ZM97.9262 22.536C99.1468 22.536 100.091 22.0365 100.758 21.04V17.1725C100.077 16.1897 99.1331 15.6994 97.9262 15.6994C97.0039 15.6994 96.2451 16.0297 95.6485 16.6925C95.0531 17.3554 94.7548 18.1634 94.7548 19.1165C94.7548 20.072 95.0531 20.88 95.6485 21.5417C96.2451 22.2045 97.0039 22.536 97.9262 22.536ZM110.614 24.672C109.067 24.672 107.796 24.1325 106.803 23.0491C105.81 21.9657 105.314 20.656 105.314 19.1165C105.314 17.5794 105.81 16.2685 106.803 15.1862C107.796 14.104 109.067 13.5622 110.614 13.5622C111.919 13.5622 112.955 13.9611 113.722 14.7588V13.776H116.063V24.4594H113.722V23.4537C112.955 24.2662 111.919 24.672 110.614 24.672ZM110.89 22.536C112.11 22.536 113.055 22.0365 113.722 21.04V17.1725C113.039 16.1897 112.097 15.6994 110.89 15.6994C109.969 15.6994 109.209 16.0297 108.612 16.6925C108.017 17.3554 107.718 18.1634 107.718 19.1165C107.718 20.072 108.017 20.88 108.612 21.5417C109.209 22.2045 109.969 22.536 110.89 22.536ZM13.7137 7.39653L13.2519 7.54281V9.28338C13.2497 10.1588 12.6885 10.9348 11.8599 11.208L7.12395 12.7051V15.2845L13.3479 13.3154C14.8245 12.8537 15.7045 11.5748 15.7045 9.89367V8.74053C15.7045 7.95196 14.8051 7.0491 13.7125 7.39538L13.7137 7.39653ZM3.8108 6.66053L12.6085 3.87767C13.5685 3.57367 14.3308 3.59081 14.7902 3.64453L13.6885 2.83653C13.1799 2.46624 11.6291 1.6011 9.71709 2.21253L1.35938 4.85824L3.8108 6.66053Z" fill="white"/>
<path d="M17.2131 14.3002C17.2131 14.3002 18.7674 12.8842 18.7674 9.84302V8.55502C18.7674 6.55273 16.4691 3.29788 12.7891 4.46474L4.06109 7.22702V23.4716L6.51252 22.6956V18.7024L14.3891 16.2099C15.8577 15.7493 17.0817 16.9059 17.0817 18.1916V19.7744C17.0817 21.387 15.6634 23.6727 13.4405 24.3733L1.35938 28.1962L3.8108 29.9996L14.6919 26.5562C16.9902 25.8224 19.5331 23.8442 19.5331 19.6442V18.0282C19.5331 15.4876 17.2131 14.3002 17.2131 14.3002ZM13.5319 13.9024L6.51137 16.123V9.03045L13.5262 6.81102C14.9902 6.35045 16.3159 7.52416 16.3159 8.73902L16.3171 9.89445C16.3171 11.915 15.2154 13.3722 13.5319 13.9024Z" fill="white"/>
<path d="M16.4681 19.7752V18.1947C16.4681 17.2998 15.6087 16.4689 14.571 16.7981L14.0167 16.9729V19.1638C14.0201 20.2381 13.3252 21.1889 12.3035 21.5089L3.44638 24.3101V7.15694L0.996094 5.35352V27.6667L13.2532 23.7878C15.1767 23.1798 16.4681 21.2221 16.4681 19.7752Z" fill="white"/>
</svg>
