<svg width="20" height="20" viewBox="0 0 20 20" fill="none" xmlns="http://www.w3.org/2000/svg">
<g clip-path="url(#clip0_4001_5890)">
<path d="M10.0013 11.6693L14.5846 15.4193M10.0013 11.6693L5.41797 15.4193M10.0013 11.6693V5.83594" stroke="white" stroke-width="1.5"/>
<path d="M8.6595 3.07278C9.2545 2.13364 9.552 1.66406 10 1.66406C10.448 1.66406 10.7455 2.13364 11.3405 3.07278L11.7679 3.74735C12.3549 4.6739 12.6484 5.13716 12.4253 5.48395C12.2022 5.83073 11.6106 5.83073 10.4274 5.83073H9.57258C8.38942 5.83073 7.79783 5.83073 7.57469 5.48395C7.35157 5.13716 7.64508 4.6739 8.2321 3.74735L8.6595 3.07278Z" stroke="white" stroke-width="1.5"/>
<path d="M17.6937 15.9507C18.2132 16.9585 18.473 17.4623 18.2571 17.8541C18.0412 18.2457 17.4946 18.262 16.4016 18.2947L15.6165 18.3181C14.5381 18.3502 13.9989 18.3663 13.8087 17.9912C13.6185 17.6161 13.9036 17.0988 14.4738 16.0644L14.8857 15.3171C15.4559 14.2826 15.7411 13.7653 16.1463 13.7503C16.5516 13.7353 16.8078 14.2324 17.3205 15.2267L17.6937 15.9507Z" stroke="white" stroke-width="1.5"/>
<path d="M2.30765 15.9507C1.78809 16.9585 1.5283 17.4623 1.7442 17.8541C1.9601 18.2457 2.50663 18.262 3.59968 18.2947L4.38481 18.3181C5.4632 18.3502 6.0024 18.3663 6.1926 17.9912C6.3828 17.6161 6.0977 17.0988 5.5275 16.0644L5.11556 15.3171C4.54535 14.2826 4.26025 13.7653 3.855 13.7503C3.44973 13.7353 3.19343 14.2324 2.68085 15.2267L2.30765 15.9507Z" stroke="white" stroke-width="1.5"/>
</g>
<defs>
<clipPath id="clip0_4001_5890">
<rect width="20" height="20" fill="white"/>
</clipPath>
</defs>
</svg>
