<svg width="16" height="16" viewBox="0 0 16 16" fill="none" xmlns="http://www.w3.org/2000/svg">
<path d="M8.0013 7.66927C8.33164 7.66927 8.63877 7.53694 9.25297 7.27227L9.69617 7.08127C10.7885 6.61062 11.3346 6.37528 11.3346 6.0026C11.3346 5.62992 10.7885 5.39459 9.69617 4.92392L9.25297 4.73293C8.63877 4.46827 8.33164 4.33594 8.0013 4.33594C7.67097 4.33594 7.36384 4.46827 6.74964 4.73293L6.30642 4.92392C5.21412 5.39459 4.66797 5.62992 4.66797 6.0026C4.66797 6.37528 5.21412 6.61062 6.30642 7.08127L6.74964 7.27227C7.36384 7.53694 7.67097 7.66927 8.0013 7.66927ZM8.0013 7.66927V11.6693" stroke="white" stroke-width="0.8" stroke-linejoin="round"/>
<path d="M11.3346 6V10C11.3346 10.3727 10.7885 10.608 9.69617 11.0787L9.25297 11.2697C8.63877 11.5343 8.33164 11.6667 8.0013 11.6667C7.67097 11.6667 7.36384 11.5343 6.74964 11.2697L6.30642 11.0787C5.21412 10.608 4.66797 10.3727 4.66797 10V6" stroke="white" stroke-width="0.8" stroke-linejoin="round"/>
<path d="M6.09748 1.66406C4.32613 1.70456 3.2915 1.87377 2.58459 2.58068C1.87768 3.28759 1.70847 4.32222 1.66797 6.09357M9.9051 1.66406C11.6765 1.70456 12.7111 1.87377 13.418 2.58068C14.1249 3.28759 14.2941 4.32222 14.3346 6.09357M9.9051 14.3307C11.6765 14.2902 12.7111 14.121 13.418 13.4141C14.1249 12.7072 14.2941 11.6726 14.3346 9.9012M6.09748 14.3307C4.32613 14.2902 3.2915 14.121 2.58459 13.4141C1.87768 12.7072 1.70847 11.6726 1.66797 9.9012" stroke="white" stroke-width="0.8" stroke-linecap="round" stroke-linejoin="round"/>
</svg>
