<svg width="24" height="24" viewBox="0 0 24 24" fill="none" xmlns="http://www.w3.org/2000/svg">
<g clip-path="url(#clip0_4020_34451)">
<path d="M23.7 18.73L13.87 2.08C13.48 1.41 12.78 1 12 1C11.22 1 10.53 1.4 10.14 2.08L0.3 18.73C-0.1 19.42 -0.1 20.23 0.3 20.91C0.487153 21.2403 0.759205 21.5147 1.08799 21.7045C1.41677 21.8944 1.79033 21.993 2.17 21.99H21.84C22.62 21.99 23.32 21.58 23.71 20.91C24.1 20.23 24.1 19.41 23.71 18.73H23.7ZM22.84 20.42C22.63 20.78 22.26 21 21.84 21H2.16C1.74 21 1.37 20.78 1.16 20.42C0.95 20.05 0.95 19.61 1.16 19.24L11 2.58C11.42 1.85 12.58 1.85 13 2.58L22.84 19.23C23.05 19.6 23.05 20.04 22.84 20.41V20.42ZM12.5 14H11.5V8H12.5V14ZM13 17C13 17.55 12.55 18 12 18C11.45 18 11 17.55 11 17C11 16.45 11.45 16 12 16C12.55 16 13 16.45 13 17Z" fill="white"/>
</g>
<defs>
<clipPath id="clip0_4020_34451">
<rect width="24" height="24" fill="white"/>
</clipPath>
</defs>
</svg>
