<svg width="26" height="26" viewBox="0 0 26 26" fill="none" xmlns="http://www.w3.org/2000/svg">
<mask id="mask0_6001_558" style="mask-type:alpha" maskUnits="userSpaceOnUse" x="0" y="0" width="26" height="26">
<rect width="26" height="26" fill="#D9D9D9"/>
</mask>
<g mask="url(#mask0_6001_558)">
</g>
<foreignObject x="-5.18919" y="-5.18919" width="36.3784" height="36.3784"><div xmlns="http://www.w3.org/1999/xhtml" style="backdrop-filter:blur(2.59px);clip-path:url(#bgblur_0_6001_558_clip_path);height:100%;width:100%"></div></foreignObject><g filter="url(#filter0_i_6001_558)" data-design-bg-blur-radius="5.18919">
<rect x="1" y="1" width="24" height="24" rx="12" fill="white" fill-opacity="0.01"/>
<rect x="0.5" y="0.5" width="25" height="25" rx="12.5" stroke="white" stroke-opacity="0.47"/>
<path d="M11.9 10C11.9552 10 12 10.0448 12 10.1V15.9C12 15.9552 11.9552 16 11.9 16H10.1C10.0448 16 10 15.9552 10 15.9V10.1C10 10.0448 10.0448 10 10.1 10H11.9ZM16.15 10C16.2052 10 16.25 10.0448 16.25 10.1V15.9C16.25 15.9552 16.2052 16 16.15 16H14.35C14.2948 16 14.25 15.9552 14.25 15.9V10.1C14.25 10.0448 14.2948 10 14.35 10H16.15Z" stroke="white"/>
</g>
<defs>
<filter id="filter0_i_6001_558" x="-5.18919" y="-5.18919" width="36.3784" height="36.3784" filterUnits="userSpaceOnUse" color-interpolation-filters="sRGB">
<feFlood flood-opacity="0" result="BackgroundImageFix"/>
<feBlend mode="normal" in="SourceGraphic" in2="BackgroundImageFix" result="shape"/>
<feColorMatrix in="SourceAlpha" type="matrix" values="0 0 0 0 0 0 0 0 0 0 0 0 0 0 0 0 0 0 127 0" result="hardAlpha"/>
<feOffset/>
<feGaussianBlur stdDeviation="2.27027"/>
<feComposite in2="hardAlpha" operator="arithmetic" k2="-1" k3="1"/>
<feColorMatrix type="matrix" values="0 0 0 0 0.905882 0 0 0 0 0.686275 0 0 0 0 0.415686 0 0 0 0.3 0"/>
<feBlend mode="normal" in2="shape" result="effect1_innerShadow_6001_558"/>
</filter>
<clipPath id="bgblur_0_6001_558_clip_path" transform="translate(5.18919 5.18919)"><rect x="1" y="1" width="24" height="24" rx="12"/>
</clipPath></defs>
</svg>
