<svg width="119" height="44" viewBox="0 0 119 44" fill="none" xmlns="http://www.w3.org/2000/svg">
<path d="M0 22C0 9.84974 9.84974 0 22 0C34.1503 0 44 9.84974 44 22C44 34.1503 34.1503 44 22 44C9.84974 44 0 34.1503 0 22Z" fill="#29292B"/>
<path d="M22 0.5C33.8741 0.5 43.5 10.1259 43.5 22C43.5 33.8741 33.8741 43.5 22 43.5C10.1259 43.5 0.5 33.8741 0.5 22C0.5 10.1259 10.1259 0.5 22 0.5Z" stroke="url(#paint0_linear_6002_461)" stroke-opacity="0.06"/>
<circle cx="22" cy="22" r="15" fill="url(#paint1_linear_6002_461)" fill-opacity="0.3"/>
<foreignObject x="-53" y="-53" width="150" height="150"><div xmlns="http://www.w3.org/1999/xhtml" style="backdrop-filter:blur(32px);clip-path:url(#bgblur_0_6002_461_clip_path);height:100%;width:100%"></div></foreignObject><g filter="url(#filter0_d_6002_461)" data-design-bg-blur-radius="64">
<circle cx="22" cy="22" r="11" fill="url(#paint2_linear_6002_461)" fill-opacity="0.3" shape-rendering="crispEdges"/>
</g>
<foreignObject x="-49" y="-49" width="142" height="142"><div xmlns="http://www.w3.org/1999/xhtml" style="backdrop-filter:blur(32px);clip-path:url(#bgblur_1_6002_461_clip_path);height:100%;width:100%"></div></foreignObject><g filter="url(#filter1_d_6002_461)" data-design-bg-blur-radius="64">
<circle cx="22" cy="22" r="7" fill="url(#paint3_linear_6002_461)" fill-opacity="0.3" shape-rendering="crispEdges"/>
</g>
<path d="M55.598 29V14.4545H60.7827C61.9096 14.4545 62.8447 14.6487 63.5881 15.0369C64.3362 15.4252 64.8949 15.9626 65.2642 16.6491C65.6335 17.331 65.8182 18.1193 65.8182 19.0142C65.8182 19.9044 65.6312 20.688 65.2571 21.3651C64.8878 22.0374 64.3291 22.5606 63.581 22.9347C62.8376 23.3087 61.9025 23.4957 60.7756 23.4957H56.848V21.6065H60.5767C61.2869 21.6065 61.8646 21.5047 62.3097 21.3011C62.7595 21.0975 63.0885 20.8016 63.2969 20.4134C63.5052 20.0251 63.6094 19.5587 63.6094 19.0142C63.6094 18.465 63.5028 17.9891 63.2898 17.5866C63.0814 17.1842 62.7524 16.8764 62.3026 16.6634C61.8575 16.4455 61.2727 16.3366 60.5483 16.3366H57.7926V29H55.598ZM62.7784 22.4375L66.3722 29H63.8722L60.3494 22.4375H62.7784ZM71.4929 29.2415C70.8016 29.2415 70.1766 29.1136 69.6179 28.858C69.0592 28.5975 68.6165 28.2211 68.2898 27.7287C67.9678 27.2363 67.8068 26.6326 67.8068 25.9176C67.8068 25.3021 67.9252 24.7955 68.1619 24.3977C68.3987 24 68.7183 23.6851 69.1207 23.4531C69.5232 23.2211 69.973 23.0459 70.4702 22.9276C70.9673 22.8092 71.474 22.7192 71.9901 22.6577C72.6435 22.5819 73.1738 22.5204 73.581 22.473C73.9882 22.4209 74.2841 22.3381 74.4688 22.2244C74.6534 22.1108 74.7457 21.9261 74.7457 21.6705V21.6207C74.7457 21.0005 74.5705 20.5199 74.2202 20.179C73.8745 19.8381 73.3584 19.6676 72.6719 19.6676C71.9569 19.6676 71.3935 19.8262 70.9815 20.1435C70.5743 20.456 70.2926 20.804 70.1364 21.1875L68.1406 20.733C68.3774 20.0701 68.723 19.535 69.1776 19.1278C69.6368 18.7159 70.1648 18.4176 70.7614 18.233C71.358 18.0436 71.9853 17.9489 72.6435 17.9489C73.0791 17.9489 73.5407 18.0009 74.0284 18.1051C74.5208 18.2045 74.9801 18.3892 75.4062 18.6591C75.8371 18.929 76.1899 19.3149 76.4645 19.8168C76.7391 20.3139 76.8764 20.9602 76.8764 21.7557V29H74.8026V27.5085H74.7173C74.58 27.7831 74.3741 28.053 74.0994 28.3182C73.8248 28.5833 73.4721 28.8035 73.0412 28.9787C72.6103 29.1539 72.0942 29.2415 71.4929 29.2415ZM71.9545 27.5369C72.5417 27.5369 73.0436 27.4209 73.4602 27.1889C73.8816 26.9569 74.2012 26.6539 74.419 26.2798C74.6416 25.901 74.7528 25.4962 74.7528 25.0653V23.6591C74.6771 23.7348 74.5303 23.8059 74.3125 23.8722C74.0994 23.9337 73.8556 23.9882 73.581 24.0355C73.3063 24.0781 73.0388 24.1184 72.7784 24.1562C72.518 24.1894 72.3002 24.2178 72.125 24.2415C71.7131 24.2936 71.3366 24.3812 70.9957 24.5043C70.6596 24.6274 70.3897 24.8049 70.1861 25.0369C69.9872 25.2642 69.8878 25.5672 69.8878 25.946C69.8878 26.4716 70.0819 26.8693 70.4702 27.1392C70.8584 27.4044 71.3532 27.5369 71.9545 27.5369ZM80.6566 33.0909C80.3394 33.0909 80.0505 33.0649 79.7901 33.0128C79.5297 32.9654 79.3356 32.9134 79.2077 32.8565L79.7191 31.1165C80.1074 31.2206 80.453 31.2656 80.756 31.2514C81.0591 31.2372 81.3266 31.1236 81.5586 30.9105C81.7953 30.6974 82.0037 30.3494 82.1836 29.8665L82.4464 29.142L78.4549 18.0909H80.7276L83.4904 26.5568H83.604L86.3668 18.0909H88.6467L84.1509 30.456C83.9426 31.0241 83.6774 31.5047 83.3555 31.8977C83.0335 32.2955 82.65 32.5938 82.2049 32.7926C81.7598 32.9915 81.2437 33.0909 80.6566 33.0909ZM92.766 14.4545V29H90.6424V14.4545H92.766ZM100.218 29.2202C99.1953 29.2202 98.3028 28.9858 97.5405 28.517C96.7782 28.0483 96.1863 27.3925 95.7649 26.5497C95.3435 25.7069 95.1328 24.7221 95.1328 23.5952C95.1328 22.4635 95.3435 21.474 95.7649 20.6264C96.1863 19.7789 96.7782 19.1207 97.5405 18.652C98.3028 18.1832 99.1953 17.9489 100.218 17.9489C101.241 17.9489 102.133 18.1832 102.896 18.652C103.658 19.1207 104.25 19.7789 104.671 20.6264C105.093 21.474 105.303 22.4635 105.303 23.5952C105.303 24.7221 105.093 25.7069 104.671 26.5497C104.25 27.3925 103.658 28.0483 102.896 28.517C102.133 28.9858 101.241 29.2202 100.218 29.2202ZM100.225 27.4375C100.888 27.4375 101.437 27.2623 101.873 26.9119C102.308 26.5616 102.63 26.0952 102.839 25.5128C103.052 24.9304 103.158 24.2888 103.158 23.5881C103.158 22.892 103.052 22.2528 102.839 21.6705C102.63 21.0833 102.308 20.6122 101.873 20.2571C101.437 19.902 100.888 19.7244 100.225 19.7244C99.5575 19.7244 99.0036 19.902 98.5632 20.2571C98.1276 20.6122 97.8033 21.0833 97.5902 21.6705C97.3819 22.2528 97.2777 22.892 97.2777 23.5881C97.2777 24.2888 97.3819 24.9304 97.5902 25.5128C97.8033 26.0952 98.1276 26.5616 98.5632 26.9119C99.0036 27.2623 99.5575 27.4375 100.225 27.4375ZM109.797 22.5227V29H107.674V18.0909H109.712V19.8665H109.847C110.098 19.2888 110.491 18.8248 111.026 18.4744C111.566 18.1241 112.245 17.9489 113.064 17.9489C113.808 17.9489 114.459 18.1051 115.017 18.4176C115.576 18.7254 116.009 19.1847 116.317 19.7955C116.625 20.4062 116.779 21.1615 116.779 22.0611V29H114.655V22.3168C114.655 21.526 114.449 20.9081 114.037 20.4631C113.625 20.0133 113.06 19.7884 112.34 19.7884C111.847 19.7884 111.409 19.8949 111.026 20.108C110.647 20.321 110.346 20.6335 110.124 21.0455C109.906 21.4527 109.797 21.9451 109.797 22.5227Z" fill="white"/>
<defs>
<filter id="filter0_d_6002_461" x="-53" y="-53" width="150" height="150" filterUnits="userSpaceOnUse" color-interpolation-filters="sRGB">
<feFlood flood-opacity="0" result="BackgroundImageFix"/>
<feColorMatrix in="SourceAlpha" type="matrix" values="0 0 0 0 0 0 0 0 0 0 0 0 0 0 0 0 0 0 127 0" result="hardAlpha"/>
<feOffset dy="4"/>
<feGaussianBlur stdDeviation="2"/>
<feComposite in2="hardAlpha" operator="out"/>
<feColorMatrix type="matrix" values="0 0 0 0 0 0 0 0 0 0 0 0 0 0 0 0 0 0 0.25 0"/>
<feBlend mode="normal" in2="BackgroundImageFix" result="effect1_dropShadow_6002_461"/>
<feBlend mode="normal" in="SourceGraphic" in2="effect1_dropShadow_6002_461" result="shape"/>
</filter>
<clipPath id="bgblur_0_6002_461_clip_path" transform="translate(53 53)"><circle cx="22" cy="22" r="11"/>
</clipPath><filter id="filter1_d_6002_461" x="-49" y="-49" width="142" height="142" filterUnits="userSpaceOnUse" color-interpolation-filters="sRGB">
<feFlood flood-opacity="0" result="BackgroundImageFix"/>
<feColorMatrix in="SourceAlpha" type="matrix" values="0 0 0 0 0 0 0 0 0 0 0 0 0 0 0 0 0 0 127 0" result="hardAlpha"/>
<feOffset dy="4"/>
<feGaussianBlur stdDeviation="2"/>
<feComposite in2="hardAlpha" operator="out"/>
<feColorMatrix type="matrix" values="0 0 0 0 0 0 0 0 0 0 0 0 0 0 0 0 0 0 0.25 0"/>
<feBlend mode="normal" in2="BackgroundImageFix" result="effect1_dropShadow_6002_461"/>
<feBlend mode="normal" in="SourceGraphic" in2="effect1_dropShadow_6002_461" result="shape"/>
</filter>
<clipPath id="bgblur_1_6002_461_clip_path" transform="translate(49 49)"><circle cx="22" cy="22" r="7"/>
</clipPath><linearGradient id="paint0_linear_6002_461" x1="22" y1="0" x2="22" y2="44" gradientUnits="userSpaceOnUse">
<stop stop-color="white" stop-opacity="0"/>
<stop offset="1" stop-color="white"/>
</linearGradient>
<linearGradient id="paint1_linear_6002_461" x1="22" y1="7" x2="22" y2="37" gradientUnits="userSpaceOnUse">
<stop stop-color="white"/>
<stop offset="1" stop-color="white" stop-opacity="0.1"/>
</linearGradient>
<linearGradient id="paint2_linear_6002_461" x1="22" y1="11" x2="22" y2="33" gradientUnits="userSpaceOnUse">
<stop stop-color="white"/>
<stop offset="1" stop-color="white" stop-opacity="0"/>
</linearGradient>
<linearGradient id="paint3_linear_6002_461" x1="22" y1="15" x2="22" y2="29" gradientUnits="userSpaceOnUse">
<stop stop-color="white"/>
<stop offset="1" stop-color="white" stop-opacity="0"/>
</linearGradient>
</defs>
</svg>
